<svg width="163" height="121" viewBox="0 0 163 121" fill="none" xmlns="http://www.w3.org/2000/svg"><path d="M79.949 73.332c0-.459.444-.812.994-.812.642 0 1.1.51 1.1 1.074h1.047c0-.89-.694-2.003-2.094-2.003-1.14 0-2.095.72-2.095 1.82 0 2.133 3.194 1.688 3.194 3.075 0 .55-.484.982-1.139.982-.745 0-1.256-.484-1.256-1.152v-.118h-1.008v.158c0 1.06.838 2.041 2.278 2.041 1.23 0 2.172-.838 2.172-1.885 0-2.369-3.193-1.858-3.193-3.18Zm6.951-12.31v4.437h1.021v-4.515c0-1.205-.903-2.134-2.068-2.134-1.047 0-1.557.798-1.557.798v-3.311h-1.022v9.162h1.022v-4.424c0-.746.64-1.309 1.36-1.309.72 0 1.244.629 1.244 1.296Zm-5.198 2.304h-1.02c0 .72-.524 1.335-1.283 1.335-.773 0-1.31-.523-1.31-1.322v-2.304c0-.772.55-1.322 1.31-1.322s1.23.576 1.23 1.296h1.021c0-1.27-.916-2.225-2.251-2.225-1.414 0-2.33.955-2.33 2.238v2.33c0 1.282.916 2.238 2.33 2.238 1.387 0 2.303-.943 2.303-2.264Zm-5.72 11.053h-2.566v-.537c0-.746.524-1.322 1.283-1.322.759 0 1.283.576 1.283 1.323v.535Zm-1.27-2.788c-1.4 0-2.304.995-2.304 2.252v2.33c0 1.242.903 2.224 2.303 2.224 1.35 0 2.24-.85 2.278-2.146h-.995c-.04.759-.523 1.217-1.295 1.217-.76 0-1.283-.55-1.283-1.296v-.851h3.573v-1.478c0-1.258-.903-2.252-2.278-2.252Zm-3.56 42.251H49.805V92.497h21.345v21.345Zm6.545-28.46H43.26a.569.569 0 0 0-.57.569v34.437c0 .314.255.569.57.569h34.437a.57.57 0 0 0 .57-.569V85.951a.57.57 0 0 0-.57-.57Zm48.922-12.875-.038-.786h-.956v6.546h1.021v-4.084c0-1.126.628-1.65 1.296-1.65.327 0 .562.092.562.092l.341-.864s-.341-.17-.772-.17c-.655 0-1.204.418-1.454.916Zm.602-7.048h1.113v-9.162h-1.113v3.822h-2.827v-3.822h-1.1v9.162h1.1v-4.32h2.827v4.32Zm5.656 10.726c0 .563-.576 1.27-1.44 1.27-.719 0-1.204-.498-1.204-1.113 0-.628.524-1.126 1.178-1.178l1.466-.105v1.126Zm-1.165-4.594c-1.217 0-2.055.785-2.172 1.91h1.033c.092-.614.524-.955 1.139-.955.72 0 1.165.498 1.165 1.191v.433l-1.518.104c-1.244.092-2.147.942-2.147 2.082 0 1.23.903 2.002 2.016 2.002 1.23 0 1.636-.838 1.636-.838l.052.747h.982V73.71c0-1.165-.759-2.12-2.186-2.12Zm-9.059 2.788h-2.565v-.537c0-.746.523-1.322 1.282-1.322s1.283.576 1.283 1.323v.535Zm-1.27-2.788c-1.4 0-2.304.995-2.304 2.252v2.33c0 1.242.904 2.224 2.304 2.224 1.348 0 2.238-.85 2.277-2.146h-.995c-.039.759-.523 1.217-1.295 1.217-.759 0-1.282-.55-1.282-1.296v-.851h3.572v-1.478c0-1.258-.902-2.252-2.277-2.252Zm-68.155-10.02h-2.565v-.536c0-.746.524-1.322 1.283-1.322.759 0 1.282.576 1.282 1.322v.536Zm-1.27-2.787c-1.4 0-2.303.994-2.303 2.251v2.33c0 1.243.904 2.225 2.304 2.225 1.348 0 2.238-.85 2.277-2.147h-.994c-.04.76-.523 1.218-1.296 1.218-.759 0-1.283-.55-1.283-1.296v-.851h3.573v-1.479c0-1.257-.902-2.251-2.277-2.251Zm4.7-11.865c.328 0 .564.092.564.092l.34-.865s-.34-.17-.772-.17c-.655 0-1.205.42-1.453.917l-.04-.786h-.955v6.545h1.02v-4.084c0-1.126.63-1.65 1.297-1.65Zm-4.555 24.698c-1.087 0-1.597.877-1.597.877l-.053-.773h-.955v6.546h1.021v-4.424c0-.747.641-1.31 1.361-1.31.799 0 1.244.59 1.244 1.296v4.438h1.02V73.75c0-1.205-.837-2.134-2.041-2.134Zm5.851-6.027c1.231 0 2.174-.838 2.174-1.885 0-2.37-3.194-1.859-3.194-3.18 0-.459.445-.812.995-.812.641 0 1.099.51 1.099 1.073h1.047c0-.89-.694-2.002-2.095-2.002-1.138 0-2.093.72-2.093 1.819 0 2.134 3.193 1.688 3.193 3.076 0 .55-.484.982-1.138.982-.746 0-1.257-.484-1.257-1.152v-.118h-1.007v.157c0 1.06.837 2.042 2.276 2.042Zm11.468 10.503c0 .655-.484 1.348-1.321 1.348-.773 0-1.284-.667-1.284-1.348v-2.198c0-.76.577-1.349 1.284-1.349.824 0 1.321.694 1.321 1.349v2.198Zm0-3.69s-.405-.786-1.465-.786c-1.231 0-2.16.929-2.16 2.094v2.566c0 1.178.929 2.094 2.134 2.094 1.073 0 1.531-.746 1.531-.746l.039.642h.943v-9.163h-1.022v3.298Zm-9.752 3.69c0 .655-.485 1.348-1.323 1.348-.771 0-1.282-.667-1.282-1.348v-2.198c0-.76.576-1.349 1.282-1.349.825 0 1.323.694 1.323 1.349v2.198Zm0-3.69s-.406-.786-1.467-.786c-1.23 0-2.159.929-2.159 2.094v2.566c0 1.178.93 2.094 2.133 2.094 1.074 0 1.532-.746 1.532-.746l.04.642h.942v-9.163H59.67v3.298Zm12.75-6.944v-4.515c0-1.205-.903-2.134-2.067-2.134-1.048 0-1.558.798-1.558.798v-3.311h-1.02v9.162h1.02v-4.424c0-.746.64-1.309 1.361-1.309.72 0 1.244.629 1.244 1.296v4.437h1.02Zm-7.239-2.133c0 .72-.523 1.335-1.283 1.335-.772 0-1.309-.523-1.309-1.322v-2.304c0-.772.55-1.322 1.309-1.322.76 0 1.23.576 1.23 1.296h1.022c0-1.27-.916-2.225-2.252-2.225-1.413 0-2.33.955-2.33 2.238v2.33c0 1.282.917 2.238 2.33 2.238 1.388 0 2.304-.943 2.304-2.264h-1.021Zm70.668-12.703c0 1.322.838 2.133 2.042 2.133 1.008 0 1.584-.785 1.584-.785l.039.681h.982v-6.545h-1.021v4.425c0 .745-.641 1.308-1.361 1.308-.851 0-1.243-.497-1.243-1.296v-4.437h-1.022v4.516Zm17.19 22.709c0-.459.445-.812.994-.812.641 0 1.1.51 1.1 1.074h1.047c0-.89-.694-2.003-2.094-2.003-1.139 0-2.095.72-2.095 1.82 0 2.133 3.194 1.688 3.194 3.075 0 .55-.484.982-1.138.982-.747 0-1.257-.484-1.257-1.152v-.118h-1.007v.158c0 1.06.837 2.041 2.276 2.041 1.231 0 2.174-.838 2.174-1.885 0-2.369-3.194-1.858-3.194-3.18Zm-2.959-22.853V48.28c0-.76.576-1.348 1.283-1.348.824 0 1.322.694 1.322 1.348v2.199c0 .654-.485 1.349-1.322 1.349-.773 0-1.283-.669-1.283-1.35Zm2.643 1.531.04.642h.942V43.49h-1.02v3.299s-.407-.785-1.466-.785c-1.231 0-2.16.93-2.16 2.094v2.565c0 1.178.929 2.094 2.134 2.094 1.073 0 1.53-.746 1.53-.746Zm-19.256 11.368c0 .563-.577 1.27-1.44 1.27-.72 0-1.204-.498-1.204-1.113 0-.628.523-1.126 1.177-1.178l1.467-.105v1.126Zm-1.166-4.594c-1.216 0-2.054.785-2.172 1.91h1.034c.092-.614.524-.955 1.138-.955.721 0 1.166.498 1.166 1.191v.433l-1.518.104c-1.244.092-2.147.942-2.147 2.081 0 1.23.903 2.003 2.016 2.003 1.23 0 1.636-.838 1.636-.838l.052.746h.982v-4.555c0-1.165-.76-2.12-2.187-2.12ZM35.007 85.382H29.03a.569.569 0 0 0-.57.569v13.661H7.116V85.951a.57.57 0 0 0-.57-.57H.57a.569.569 0 0 0-.569.57v34.437a.57.57 0 0 0 .57.569h5.976a.57.57 0 0 0 .57-.569v-13.661H28.46v13.661c0 .314.254.569.569.569h5.977a.57.57 0 0 0 .569-.569V85.951a.57.57 0 0 0-.57-.57Zm114.301-24.347c0-.746.523-1.322 1.283-1.322.758 0 1.283.576 1.283 1.322v.536h-2.566v-.536Zm3.573 2.408h-.995c-.039.76-.523 1.218-1.295 1.218-.76 0-1.283-.55-1.283-1.296v-.851h3.573v-1.479c0-1.257-.903-2.251-2.278-2.251-1.4 0-2.303.994-2.303 2.251v2.33c0 1.243.903 2.225 2.303 2.225 1.349 0 2.239-.85 2.278-2.147Zm9.111-14.679h-2.565v-.537c0-.745.524-1.322 1.283-1.322.759 0 1.282.577 1.282 1.322v.537Zm-1.269-2.788c-1.401 0-2.304.995-2.304 2.251v2.33c0 1.244.903 2.225 2.304 2.225 1.348 0 2.238-.85 2.277-2.146h-.995c-.039.76-.523 1.218-1.295 1.218-.759 0-1.283-.55-1.283-1.296v-.85H163v-1.48c0-1.257-.903-2.252-2.277-2.252Zm-5.184-.942h1.178V43.87h-1.178v1.164ZM35.067 42.691H.509A.509.509 0 0 0 0 43.2v34.557c0 .282.228.51.51.51h34.705c.2 0 .36-.162.36-.36V57.28a.36.36 0 0 0-.36-.36H14.671a.44.44 0 0 0-.44.441v6.233a.44.44 0 0 0 .44.441h13.79v7.115H7.115V49.806h27.952a.51.51 0 0 0 .509-.51V43.2a.51.51 0 0 0-.51-.51Zm120.551 9.961h1.021v-6.544h-1.021v6.544Zm-15.763-8.757h-1.113v1.112h1.113v-1.112Zm-2.213 0h-1.112v1.112h1.112v-1.112Zm10.434 27.722c-1.034 0-1.636.759-1.636.759s-.419-.759-1.335-.759c-1.048 0-1.492.877-1.492.877l-.053-.773h-.955v6.546h1.008v-4.464c0-.589.601-1.244 1.217-1.244.576 0 .995.445.995.996v4.712h1.02v-4.542c0-.707.537-1.192 1.14-1.192.575 0 1.007.406 1.007 1.152v4.582h1.021v-4.568c0-1.283-.824-2.082-1.937-2.082ZM49 50.532v-2.305c0-.771.55-1.322 1.31-1.322.758 0 1.309.55 1.309 1.322v2.305c0 .798-.537 1.322-1.31 1.322-.772 0-1.309-.524-1.309-1.322Zm3.64.012v-2.33c0-1.282-.917-2.237-2.33-2.237-1.414 0-2.33.955-2.33 2.238v2.33c0 1.282.916 2.237 2.33 2.237 1.413 0 2.33-.954 2.33-2.238Zm81.507-6.269c.367 0 .694.222.694.222l.55-.733s-.432-.406-1.244-.406c-.916 0-1.754.655-1.754 1.912v.837h-.915v.943h.915v5.602h1.021V47.05h1.663v-.943h-1.663v-.968c0-.59.367-.864.733-.864Zm5.341 31.871c0 .746-.641 1.309-1.361 1.309-.851 0-1.244-.498-1.244-1.296V71.72h-1.02v4.517c0 1.321.837 2.133 2.041 2.133 1.008 0 1.584-.785 1.584-.785l.04.68h.981v-6.545h-1.021v4.425Zm5.198-10.556c1.231 0 2.173-.838 2.173-1.885 0-2.37-3.193-1.859-3.193-3.18 0-.459.444-.812.994-.812.641 0 1.1.51 1.1 1.073h1.047c0-.89-.694-2.002-2.094-2.002-1.14 0-2.095.72-2.095 1.819 0 2.134 3.194 1.688 3.194 3.076 0 .55-.484.982-1.139.982-.746 0-1.256-.484-1.256-1.152v-.118h-1.008v.157c0 1.06.838 2.042 2.277 2.042Zm-1.335-17.022c0-1.126.628-1.65 1.296-1.65.327 0 .563.093.563.093l.34-.865s-.34-.17-.773-.17c-.654 0-1.204.42-1.452.917l-.039-.786h-.956v6.545h1.021v-4.084Zm-4.49 10.242c-1.087 0-1.597.877-1.597.877l-.053-.773h-.955v6.545h1.02v-4.424c0-.746.642-1.309 1.362-1.309.798 0 1.244.59 1.244 1.296v4.437h1.021v-4.515c0-1.205-.838-2.134-2.042-2.134Zm-79.99-11.093c0-.458.446-.812.996-.812.64 0 1.099.511 1.099 1.074h1.047c0-.89-.694-2.002-2.094-2.002-1.14 0-2.095.719-2.095 1.819 0 2.133 3.194 1.688 3.194 3.076 0 .55-.484.982-1.139.982-.746 0-1.256-.485-1.256-1.152v-.118h-1.008v.156c0 1.061.837 2.042 2.278 2.042 1.23 0 2.172-.837 2.172-1.884 0-2.37-3.194-1.859-3.194-3.18Zm52.158 13.318c0-.746.523-1.322 1.282-1.322s1.282.576 1.282 1.322v.536h-2.564v-.536Zm3.572 2.408h-.994c-.039.76-.524 1.218-1.296 1.218-.759 0-1.282-.55-1.282-1.296v-.851h3.572v-1.479c0-1.257-.903-2.251-2.277-2.251-1.401 0-2.303.994-2.303 2.251v2.33c0 1.243.902 2.225 2.303 2.225 1.348 0 2.238-.85 2.277-2.147Zm-5.812 14.954c1.23 0 2.173-.838 2.173-1.885 0-2.369-3.194-1.858-3.194-3.18 0-.459.445-.812.995-.812.641 0 1.099.51 1.099 1.074h1.047c0-.89-.693-2.003-2.094-2.003-1.138 0-2.094.72-2.094 1.82 0 2.133 3.194 1.688 3.194 3.075 0 .55-.484.982-1.139.982-.746 0-1.257-.484-1.257-1.152v-.118h-1.007v.158c0 1.06.837 2.041 2.277 2.041Zm3.326-30.17c0-.745.524-1.322 1.282-1.322.76 0 1.283.577 1.283 1.322v.537h-2.565v-.537Zm3.573 1.48v-1.48c0-1.256-.903-2.25-2.277-2.25-1.4 0-2.304.994-2.304 2.25v2.33c0 1.244.904 2.225 2.304 2.225 1.348 0 2.238-.85 2.277-2.146h-.994c-.04.76-.524 1.218-1.297 1.218-.758 0-1.282-.55-1.282-1.296v-.85h3.573Zm-9.268-5.328v1.728h-.916v.943h.916v3.94c0 1.047.812 1.792 1.833 1.792.942 0 1.741-.732 1.741-1.687v-.158h-.969v.184c0 .405-.353.733-.772.733a.796.796 0 0 1-.812-.799V47.05h2.134v-.943h-2.134V44.38h-1.021ZM95.646 61.035c0-.746.523-1.322 1.283-1.322.758 0 1.282.576 1.282 1.322v.536h-2.565v-.536Zm1.295 4.555c1.348 0 2.239-.85 2.278-2.147h-.995c-.039.76-.523 1.218-1.295 1.218-.76 0-1.283-.55-1.283-1.296v-.851h3.573v-1.479c0-1.257-.903-2.251-2.278-2.251-1.4 0-2.303.994-2.303 2.251v2.33c0 1.243.903 2.225 2.303 2.225Zm21.471-22.1h-1.021v9.162h1.021V43.49Zm-24.036 7.094v.156c0 1.061.838 2.042 2.278 2.042 1.23 0 2.173-.837 2.173-1.884 0-2.37-3.194-1.859-3.194-3.18 0-.46.445-.813.995-.813.64 0 1.1.511 1.1 1.074h1.046c0-.89-.693-2.002-2.094-2.002-1.139 0-2.095.719-2.095 1.819 0 2.133 3.194 1.688 3.194 3.076 0 .55-.484.982-1.139.982-.745 0-1.256-.485-1.256-1.152v-.118h-1.008Zm-48.82 11.184h1.336v1.427c0 .733-.576 1.361-1.466 1.361-.93 0-1.492-.628-1.492-1.374v-4.62c0-.76.563-1.363 1.492-1.363.85 0 1.466.629 1.466 1.389h1.113c0-1.087-.76-2.423-2.579-2.423-1.636 0-2.605 1.153-2.605 2.41v4.593c0 1.27.969 2.422 2.605 2.422 1.57 0 2.592-1.151 2.592-2.408v-2.434h-2.461v1.02Zm74.689-9.116h1.021V43.49h-1.021v9.163ZM43.26 7.115h34.437a.57.57 0 0 0 .57-.57V.57a.57.57 0 0 0-.57-.569H43.26a.569.569 0 0 0-.57.57v5.976c0 .314.255.57.57.57Zm54.165 71.282c1.231 0 2.174-.838 2.174-1.885 0-2.369-3.194-1.858-3.194-3.18 0-.459.445-.812.994-.812.642 0 1.1.51 1.1 1.074h1.047c0-.89-.694-2.003-2.095-2.003-1.138 0-2.094.72-2.094 1.82 0 2.133 3.194 1.688 3.194 3.075 0 .55-.484.982-1.138.982-.747 0-1.257-.484-1.257-1.152v-.118h-1.008v.158c0 1.06.838 2.041 2.277 2.041Zm26.551-30.17c0-.745.523-1.322 1.282-1.322s1.283.577 1.283 1.322v.537h-2.565v-.537Zm1.296 4.556c1.347 0 2.238-.851 2.276-2.147h-.994c-.039.76-.523 1.218-1.296 1.218-.759 0-1.282-.55-1.282-1.296v-.85h3.572v-1.48c0-1.257-.902-2.252-2.276-2.252-1.401 0-2.304.995-2.304 2.251v2.33c0 1.244.903 2.225 2.304 2.225Zm-20.58 10.503v-2.199c0-.759.576-1.348 1.283-1.348.824 0 1.321.694 1.321 1.349v2.198c0 .655-.483 1.348-1.321 1.348-.772 0-1.283-.667-1.283-1.348Zm2.644 1.531.039.642h.942v-9.162h-1.021v3.298s-.405-.785-1.465-.785c-1.23 0-2.16.929-2.16 2.094v2.565c0 1.178.93 2.095 2.134 2.095 1.072 0 1.531-.747 1.531-.747Zm-7.199-14.233v.156c0 1.061.837 2.042 2.277 2.042 1.23 0 2.172-.837 2.172-1.884 0-2.37-3.193-1.859-3.193-3.18 0-.46.445-.813.995-.813.641 0 1.099.511 1.099 1.074h1.047c0-.89-.693-2.002-2.094-2.002-1.139 0-2.094.719-2.094 1.819 0 2.133 3.194 1.688 3.194 3.076 0 .55-.484.982-1.139.982-.746 0-1.257-.485-1.257-1.152v-.118h-1.007Zm3.389 27.813c.942 0 1.742-.733 1.742-1.688v-.157h-.969v.183c0 .406-.354.733-.773.733a.796.796 0 0 1-.811-.798v-4.006h2.134v-.943h-2.134v-1.727h-1.021v1.727h-.917v.943h.917v3.94c0 1.047.811 1.793 1.832 1.793Zm10.146-4.555c0-.746.524-1.322 1.283-1.322.759 0 1.283.576 1.283 1.323v.535h-2.566v-.535Zm3.574 1.479v-1.478c0-1.258-.903-2.252-2.277-2.252-1.401 0-2.304.995-2.304 2.252v2.33c0 1.242.903 2.224 2.304 2.224 1.348 0 2.238-.85 2.277-2.146h-.995c-.039.759-.523 1.217-1.296 1.217-.759 0-1.283-.55-1.283-1.296v-.851h3.574ZM43.131 35.576h6.234a.441.441 0 0 0 .441-.441v-13.79h27.951a.51.51 0 0 0 .51-.509V14.74a.509.509 0 0 0-.51-.509H43.131a.44.44 0 0 0-.44.44v20.465a.44.44 0 0 0 .44.44Zm74.194 25.8c0-1.127.628-1.65 1.296-1.65.328 0 .562.092.562.092l.341-.864s-.341-.17-.772-.17c-.655 0-1.204.418-1.453.916l-.039-.786h-.956v6.545h1.021v-4.084ZM43.79 48.331h3.062v-1.02H43.79v-2.789h3.377V43.49h-4.476v9.163h1.099v-4.32Zm31.498 10.582h-1.02v6.545h1.02v-6.545Zm14.454-10.097v-.852c0-.601.419-1.072 1.047-1.072.576 0 1.034.47 1.034 1.072v.852c0 .589-.458 1.073-1.034 1.073-.628 0-1.047-.484-1.047-1.073Zm-1.31 4.424v.3c0 1.035 1.205 1.571 2.46 1.571 1.127 0 2.566-.392 2.566-1.597 0-.575-.3-.942-.85-1.308l-1.1-.746c-.117-.079-.222-.17-.222-.38v-.34c.864-.223 1.544-1.021 1.544-1.924v-.864c0-.393-.144-.825-.379-1.113l.157-.275c.078-.117.249-.17.47-.17v-.916c-.365 0-.77.052-1.033.406l-.261.353a1.984 1.984 0 0 0-.995-.261c-1.139 0-2.069.902-2.069 1.976v.864c0 .903.655 1.662 1.493 1.91v.46c0 .431.262.77.55.954l1.426.93c.144.092.262.222.262.432 0 .445-.615.72-1.57.72-.878 0-1.427-.301-1.427-.708v-.274h-1.021Zm5.093 10.504h-.969v.183c0 .406-.354.733-.772.733a.796.796 0 0 1-.811-.799v-4.006h2.133v-.942h-2.133v-1.727H89.95v1.727h-.916v.942h.916v3.94c0 1.048.812 1.794 1.833 1.794.942 0 1.74-.733 1.74-1.688v-.157ZM78.103 52.756c1.007 0 1.583-.785 1.583-.785l.04.681h.982v-6.545h-1.022v4.425c0 .745-.64 1.308-1.36 1.308-.852 0-1.244-.497-1.244-1.296v-4.437H76.06v4.516c0 1.322.838 2.133 2.042 2.133Zm-2.736 3.92h-1.178v1.165h1.178v-1.165Zm8.196-8.449c0-.745.64-1.308 1.361-1.308.798 0 1.243.589 1.243 1.296v4.437h1.021v-4.516c0-1.204-.838-2.133-2.042-2.133-1.086 0-1.597.876-1.597.876l-.052-.772h-.955v6.545h1.02v-4.425ZM89.23 71.37c0-.68.51-1.362 1.492-1.362.956 0 1.48.681 1.48 1.362v4.633c0 .694-.524 1.362-1.48 1.362-.981 0-1.492-.668-1.492-1.375v-4.62Zm-1.112 4.606c0 1.205.929 2.422 2.604 2.422 1.637 0 2.592-1.218 2.592-2.408V71.38c0-1.204-.955-2.408-2.592-2.408-1.675 0-2.604 1.204-2.604 2.409v4.593ZM65.836 52.783c1.388 0 2.303-.943 2.303-2.265h-1.02c0 .72-.524 1.336-1.283 1.336-.772 0-1.309-.524-1.309-1.322v-2.305c0-.771.55-1.322 1.309-1.322.76 0 1.23.577 1.23 1.296h1.021c0-1.269-.916-2.224-2.251-2.224-1.413 0-2.33.955-2.33 2.238v2.33c0 1.282.917 2.237 2.33 2.237ZM46.38 76.145c0 .746-.64 1.309-1.361 1.309-.85 0-1.243-.498-1.243-1.296V71.72h-1.021v4.517c0 1.321.838 2.133 2.042 2.133 1.008 0 1.583-.785 1.583-.785l.04.68h.982v-6.545H46.38v4.425Zm24.351-27.919c0-.745.642-1.308 1.362-1.308.72 0 1.243.628 1.243 1.296v4.437h1.021v-4.516c0-1.204-.903-2.133-2.068-2.133-1.047 0-1.558.798-1.558.798v-3.312h-1.02v9.163h1.02v-4.425Z" fill="#fff"/></svg>